<svg
   width="512"
   height="512"
   viewBox="0 0 512 512"
   version="1.1"
   id="svg1"
   sodipodi:docname="ODLogo.svg"
   inkscape:version="1.4 (86a8ad7, 2024-10-11)"
   xmlns:inkscape="http://www.inkscape.org/namespaces/inkscape"
   xmlns:sodipodi="http://sodipodi.sourceforge.net/DTD/sodipodi-0.dtd"
   xmlns="http://www.w3.org/2000/svg"
   xmlns:svg="http://www.w3.org/2000/svg">
  <sodipodi:namedview
     id="namedview1"
     pagecolor="#ffffff"
     bordercolor="#000000"
     borderopacity="0.25"
     inkscape:showpageshadow="2"
     inkscape:pageopacity="0.0"
     inkscape:pagecheckerboard="0"
     inkscape:deskcolor="#d1d1d1"
     inkscape:zoom="1.5175781"
     inkscape:cx="256"
     inkscape:cy="256"
     inkscape:window-width="1920"
     inkscape:window-height="991"
     inkscape:window-x="-9"
     inkscape:window-y="-9"
     inkscape:window-maximized="1"
     inkscape:current-layer="svg1" />
  <defs
     id="defs1" />
  <g
     id="layer1">
    <path
       style="font-size:396.021px;font-family:'Sarasa UI SC';-inkscape-font-specification:'Sarasa UI SC';fill:#00cfff;stroke-width:0.990051"
       d="m 413.99674,360.48073 q 0,39.25403 -17.20989,71.16002 -17.01653,31.90599 -45.44187,49.50262 -19.7237,12.18229 -44.08827,17.59664 -24.1712,5.41435 -63.81198,5.41435 H 170.73775 V 216.22698 h 71.9335 q 42.15458,0 66.9059,6.18783 24.94468,5.99446 42.15457,16.62979 29.39219,18.37011 45.82861,48.92251 16.43641,30.55241 16.43641,72.51362 z m -40.02751,-0.58011 q 0,-33.83969 -11.79555,-57.04404 -11.79554,-23.20436 -35.19327,-36.54686 -17.01653,-9.66848 -36.16012,-13.34251 -19.14359,-3.86739 -45.8286,-3.86739 h -35.96675 v 222.1817 h 35.96675 q 27.65186,0 48.14904,-4.06076 20.69055,-4.06076 37.90044,-15.08283 21.46403,-13.72925 32.09936,-36.16012 10.8287,-22.43088 10.8287,-56.07719 z"
       id="text2"
       transform="scale(1.1261848,0.88795377)"
       aria-label="D" />
  </g>
  <path
     style="font-size:368.808px;font-family:'Sarasa UI SC';-inkscape-font-specification:'Sarasa UI SC';fill:#ff5733;stroke-width:0.922019"
     d="m 274.60461,105.22509 q 16.38746,18.0082 25.0314,44.12009 8.82402,26.1119 8.82402,59.247 0,33.13509 -9.0041,59.42707 -8.82402,26.11189 -24.85132,43.57985 -16.56755,18.18829 -39.25789,27.37247 -22.51025,9.18418 -51.50346,9.18418 -28.27288,0 -51.50346,-9.36426 Q 109.28929,329.42722 93.081911,311.5991 76.874528,293.77098 68.050508,267.83917 59.40657,241.90735 59.40657,208.59218 q 0,-32.77494 8.643938,-58.70675 8.643938,-26.11189 25.211485,-44.66034 15.847217,-17.648044 39.257887,-27.01231 23.59074,-9.364266 51.32338,-9.364266 28.81312,0 51.68354,9.544348 23.0505,9.364266 39.07781,26.832228 z m -3.24148,103.36709 q 0,-52.2238 -23.41067,-80.49668 -23.41066,-28.452958 -63.92912,-28.452958 -40.87862,0 -64.28929,28.452958 -23.23058,28.27288 -23.23058,80.49668 0,52.76403 23.77083,80.85683 23.77083,27.91272 63.74904,27.91272 39.97821,0 63.56896,-27.91272 23.77083,-28.0928 23.77083,-80.85683 z"
     id="text1"
     transform="scale(1.076169,0.9292221)"
     aria-label="O" />
  <path
     id="rect9"
     style="fill:#00cfff;stroke-width:1.01845"
     transform="matrix(0.9999979,0.00205126,0,1,0,0)"
     d="m 192.28523,282.11398 h 43.08973 v 57.62921 h -43.08973 z" />
</svg>